<?xml version="1.0" standalone="no"?>
<!DOCTYPE svg PUBLIC "-//W3C//DTD SVG 20010904//EN"
 "http://www.w3.org/TR/2001/REC-SVG-20010904/DTD/svg10.dtd">
<svg version="1.0" xmlns="http://www.w3.org/2000/svg"
 width="300.000000pt" height="300.000000pt" viewBox="0 0 300.000000 300.000000"
 preserveAspectRatio="xMidYMid meet">
<metadata>
Created by potrace 1.11, written by Peter Selinger 2001-2013
</metadata>
<g transform="translate(0.000000,300.000000) scale(0.100000,-0.100000)"
fill="#000000" stroke="none">
<path d="M6 2252 c-14 -14 -4 -31 23 -37 50 -11 104 -79 126 -160 14 -49 14
-1072 0 -1125 -23 -87 -80 -160 -126 -160 -20 0 -37 -25 -25 -38 9 -8 447 -10
466 -1 13 6 15 101 15 766 l-1 758 -236 2 c-130 0 -239 -1 -242 -5z"/>
<path d="M620 2243 c0 -15 14 -21 78 -31 188 -30 313 -151 371 -362 12 -41 24
-93 26 -115 3 -22 7 -56 10 -75 7 -51 7 -277 0 -351 -32 -330 -191 -527 -438
-541 -37 -2 -47 -7 -47 -20 0 -23 0 -23 117 -14 519 39 773 307 757 798 -13
375 -213 613 -584 694 -82 17 -98 19 -212 29 -71 5 -78 4 -78 -12z"/>
<path d="M2193 2182 c-17 -42 -51 -129 -76 -194 l-44 -116 27 -69 c15 -37 48
-117 73 -178 25 -60 65 -159 90 -220 25 -60 54 -131 66 -157 11 -26 17 -49 13
-52 -4 -2 -120 -5 -257 -5 -138 0 -256 0 -263 0 -7 -1 -22 -22 -33 -48 -42
-98 -110 -230 -148 -289 -39 -59 -67 -82 -106 -88 -11 -2 -19 -6 -18 -10 1 -3
3 -12 5 -18 3 -8 78 -11 266 -11 144 0 264 2 267 5 13 13 -8 35 -30 33 -77 -9
-169 53 -192 129 -16 52 -9 222 11 254 5 8 511 10 519 2 3 -3 26 -57 52 -120
48 -120 60 -179 42 -218 -12 -26 -62 -56 -77 -47 -6 3 -10 -3 -10 -14 0 -25
-30 -23 310 -23 345 0 320 -2 320 21 0 13 -6 18 -22 16 -39 -4 -87 23 -113 64
-14 21 -62 125 -106 232 -45 107 -171 409 -280 671 -110 262 -203 487 -208
500 -5 13 -18 24 -28 25 -16 1 -26 -15 -50 -75z"/>
</g>
</svg>
